<svg width="1400" height="72" viewBox="0 0 1400 72" xmlns="http://www.w3.org/2000/svg">
    <g width="1400" height="72" viewBox="0 0 1400 72">
        <g>
            <rect fill="#EFEFEF" x="0" y="0" rx="8" ry="8" width="176" height="72" />
            <rect fill="#E2E2E4" x="23" y="28" rx="0" ry="0" width="130" height="16" />
        </g>
        <g>
            <rect fill="#EFEFEF" x="188" y="0" rx="8" ry="8" width="176" height="72" />
            <rect fill="#E2E2E4" x="211" y="28" rx="0" ry="0" width="130" height="16" />
        </g>
        <g>
            <rect fill="#EFEFEF" x="376" y="0" rx="8" ry="8" width="176" height="72" />
            <rect fill="#E2E2E4" x="399" y="28" rx="0" ry="0" width="130" height="16" />
        </g>
        <g>
            <rect fill="#EFEFEF" x="564" y="0" rx="8" ry="8" width="176" height="72" />
            <rect fill="#E2E2E4" x="587" y="28" rx="0" ry="0" width="130" height="16" />
        </g>
        <g>
            <rect fill="#EFEFEF" x="752" y="0" rx="8" ry="8" width="176" height="72" />
            <rect fill="#E2E2E4" x="775" y="28" rx="0" ry="0" width="130" height="16" />
        </g>
        <g>
            <rect fill="#EFEFEF" x="940" y="0" rx="8" ry="8" width="176" height="72" />
            <rect fill="#E2E2E4" x="963" y="28" rx="0" ry="0" width="130" height="16" />
        </g>
        <g>
            <rect fill="#EFEFEF" x="1133" y="0" rx="8" ry="8" width="176" height="72" />
            <rect fill="#E2E2E4" x="1156" y="28" rx="0" ry="0" width="130" height="16" />
        </g>
        <g>
            <rect fill="#EFEFEF" x="1321" y="0" rx="8" ry="8" width="176" height="72" />
            <rect fill="#E2E2E4" x="1344" y="28" rx="0" ry="0" width="130" height="16" />
        </g>
    </g>
</svg>